# xmcd CD database file
#
# Track frame offsets:
#	150
#	13560
#	27722
#	42530
#	54902
#	68312
#	80820
#	92979
#	104670
#	118297
#	131355
#	144095
#	157500
#	171305
#	185615
#	197407
#	210627
#	223340
#	235277
#	248140
#	262495
#	277185
#	288567
#	300610
#
# Disc length: 4209 seconds
#
# Revision: 6
# Processed by: cddbd v1.5.2PL0 Copyright (c) Steve Scherf et al.
# Submitted via: CDex 1.94
#
DISCID=6f106f18
DTITLE=Muddy Waters - The Real Folk Blues and More Real Folk Blues
DYEAR=2002
DGENRE=Blues
TTITLE0=Mannish Boy
TTITLE1=Screamin' And Cryin'
TTITLE2=Just To Be With You
TTITLE3=Walking Through the Park
TTITLE4=Walkin' Blues
TTITLE5=Canary Bird
TTITLE6=The Same Thing
TTITLE7=Gypsy Woman
TTITLE8=Rollin' And Tumblin'
TTITLE9=Forty Days and Forty Nights
TTITLE10=Little Geneva
TTITLE11=You Can't Lose What You Ain't Never Had
TTITLE12=Sad Letter Blues
TTITLE13=You're Gonna Need My Help I Said
TTITLE14=Sittin Here and Drinkin' (Whiskey Blues)
TTITLE15=Down South Blues
TTITLE16=Train Fare Home Blues
TTITLE17=Kind Hearted Woman
TTITLE18=Appealing Blues(Hello Little Girl)
TTITLE19=Early Morning Blues
TTITLE20=Too Young To Know
TTITLE21=She's All Right
TTITLE22=Landlady
TTITLE23=Honey Bee
EXTD=YEAR: 2002
EXTT0=
EXTT1=
EXTT2=
EXTT3=
EXTT4=
EXTT5=
EXTT6=
EXTT7=
EXTT8=
EXTT9=
EXTT10=
EXTT11=
EXTT12=
EXTT13=
EXTT14=
EXTT15=
EXTT16=
EXTT17=
EXTT18=
EXTT19=
EXTT20=
EXTT21=
EXTT22=
EXTT23=
PLAYORDER=
